<svg width="3024" height="1496" viewBox="0 0 3024 1496" fill="none" xmlns="http://www.w3.org/2000/svg">
<rect x="2.5" y="2.5" width="3019" height="1490.21" fill="#4C327B" stroke="white" stroke-width="5"/>
<g clip-path="url(#clip0_305_2)">
<rect width="3024" height="1495" fill="url(#paint0_radial_305_2)"/>
</g>
<g filter="url(#filter0_d_305_2)">
<path d="M1235.11 684.92H1306.83V709.548H1263.21V734.552H1303.54V759.086H1263.21V809H1235.11V684.92ZM1325.72 684.92H1353.82V809H1325.72V684.92ZM1398.66 709.548H1369.05V684.92H1456.28V709.548H1426.77V809H1398.66V709.548ZM1511.61 684.92H1539.52L1588.5 809H1558.51L1549.49 784.09H1501.74L1492.62 809H1462.54L1511.61 684.92ZM1511.14 759.462H1540.18L1525.8 718.76H1525.52L1511.14 759.462ZM1598.61 684.92H1643.73C1651.69 684.92 1658.86 686.33 1665.26 689.15C1671.65 691.907 1676.72 696.137 1680.48 701.84C1684.31 707.48 1686.22 714.561 1686.22 723.084C1686.22 731.544 1684.31 738.751 1680.48 744.704C1676.72 750.595 1671.65 755.107 1665.26 758.24C1658.86 761.311 1651.69 762.846 1643.73 762.846H1626.72V809H1598.61V684.92ZM1626.72 740.662H1635.93C1639.75 740.662 1643.17 740.098 1646.17 738.97C1649.24 737.842 1651.69 736.056 1653.51 733.612C1655.32 731.105 1656.23 727.815 1656.23 723.742C1656.23 719.606 1655.32 716.347 1653.51 713.966C1651.69 711.522 1649.24 709.767 1646.17 708.702C1643.17 707.637 1639.75 707.104 1635.93 707.104H1626.72V740.662ZM1702.52 684.92H1747.64C1755.6 684.92 1762.78 686.33 1769.17 689.15C1775.56 691.907 1780.64 696.137 1784.4 701.84C1788.22 707.48 1790.13 714.561 1790.13 723.084C1790.13 731.544 1788.22 738.751 1784.4 744.704C1780.64 750.595 1775.56 755.107 1769.17 758.24C1762.78 761.311 1755.6 762.846 1747.64 762.846H1730.63V809H1702.52V684.92ZM1730.63 740.662H1739.84C1743.66 740.662 1747.08 740.098 1750.09 738.97C1753.16 737.842 1755.6 736.056 1757.42 733.612C1759.24 731.105 1760.15 727.815 1760.15 723.742C1760.15 719.606 1759.24 716.347 1757.42 713.966C1755.6 711.522 1753.16 709.767 1750.09 708.702C1747.08 707.637 1743.66 707.104 1739.84 707.104H1730.63V740.662Z" fill="#F7F6FB"/>
</g>
<path d="M0 1495C828.066 813.808 2100.85 739.811 3024 1495H0Z" fill="white"/>
<defs>
<filter id="filter0_d_305_2" x="1235.11" y="684.92" width="559.024" height="128.08" filterUnits="userSpaceOnUse" color-interpolation-filters="sRGB">
<feFlood flood-opacity="0" result="BackgroundImageFix"/>
<feColorMatrix in="SourceAlpha" type="matrix" values="0 0 0 0 0 0 0 0 0 0 0 0 0 0 0 0 0 0 127 0" result="hardAlpha"/>
<feOffset dx="2" dy="2"/>
<feGaussianBlur stdDeviation="1"/>
<feComposite in2="hardAlpha" operator="out"/>
<feColorMatrix type="matrix" values="0 0 0 0 0 0 0 0 0 0 0 0 0 0 0 0 0 0 0.25 0"/>
<feBlend mode="normal" in2="BackgroundImageFix" result="effect1_dropShadow_305_2"/>
<feBlend mode="normal" in="SourceGraphic" in2="effect1_dropShadow_305_2" result="shape"/>
</filter>
<radialGradient id="paint0_radial_305_2" cx="0" cy="0" r="1" gradientUnits="userSpaceOnUse" gradientTransform="translate(581.539 184) rotate(26.0561) scale(3171.92 3406.8)">
<stop offset="0.0980945" stop-color="#352157"/>
<stop offset="0.674206" stop-color="#756EDE"/>
<stop offset="1" stop-color="#E7D8F9"/>
</radialGradient>
<clipPath id="clip0_305_2">
<rect width="3024" height="1495" fill="white"/>
</clipPath>
</defs>
</svg>
