<svg width="3024" height="1496" viewBox="0 0 3024 1496" fill="none" xmlns="http://www.w3.org/2000/svg">
<rect width="3024" height="1495.21" fill="#004B5D"/>
<g filter="url(#filter0_d_311_13)">
<path d="M1095.38 726.752C1095.38 720.469 1098.19 715.096 1103.81 710.632C1109.43 706.168 1116.33 703.936 1124.52 703.936C1132.78 703.936 1139.11 704.969 1143.49 707.036C1147.87 709.02 1150.06 711.5 1150.06 714.476C1150.06 717.452 1148.24 719.312 1144.6 720.056C1141.46 715.344 1135.14 712.988 1125.63 712.988C1120.01 712.988 1115.42 714.311 1111.87 716.956C1108.31 719.519 1106.54 722.66 1106.54 726.38C1106.54 730.1 1107.98 732.952 1110.88 734.936C1113.77 736.92 1117.99 738.656 1123.52 740.144C1129.15 741.549 1133.44 742.831 1136.42 743.988C1139.48 745.145 1142.54 746.675 1145.6 748.576C1151.55 752.213 1154.52 757.711 1154.52 765.068C1154.52 772.343 1151.55 778.336 1145.6 783.048C1139.64 787.677 1132.2 789.992 1123.28 789.992C1114.35 789.992 1107.36 788.835 1102.32 786.52C1097.36 784.123 1094.88 781.312 1094.88 778.088C1094.88 774.781 1096.99 772.591 1101.2 771.516C1104.26 777.716 1111.17 780.816 1121.91 780.816C1128.77 780.816 1134.11 779.452 1137.91 776.724C1141.79 773.913 1143.74 770.359 1143.74 766.06C1143.74 761.679 1141.79 758.331 1137.91 756.016C1134.11 753.701 1128.11 751.552 1119.93 749.568C1111.83 747.501 1105.71 744.732 1101.58 741.26C1097.44 737.788 1095.38 732.952 1095.38 726.752ZM1191.2 704.804H1233.98C1237.04 704.804 1238.57 706.375 1238.57 709.516C1238.57 712.575 1237.04 714.104 1233.98 714.104H1197.15V740.64H1229.89C1232.94 740.64 1234.47 742.211 1234.47 745.352C1234.47 748.411 1232.94 749.94 1229.89 749.94H1197.15V779.7H1233.98C1237.04 779.7 1238.57 781.271 1238.57 784.412C1238.57 787.471 1237.04 789 1233.98 789H1191.2C1187.97 789 1186.36 787.429 1186.36 784.288V709.516C1186.36 706.375 1187.97 704.804 1191.2 704.804ZM1299.96 704.928H1301.33C1303.39 704.928 1304.72 705.176 1305.3 705.672C1305.96 706.168 1306.37 706.499 1306.54 706.664C1306.78 706.747 1307.07 707.077 1307.4 707.656C1307.82 708.235 1308.06 708.607 1308.15 708.772C1308.31 708.937 1308.6 709.433 1309.02 710.26C1309.43 711.087 1309.72 711.624 1309.88 711.872C1320.05 730.307 1329.43 753.949 1338.03 782.8C1338.28 783.792 1338.4 784.743 1338.4 785.652C1338.4 787.884 1337.12 789 1334.56 789H1331.58C1330.18 789 1329.19 788.752 1328.61 788.256C1328.11 787.76 1327.74 787.388 1327.49 787.14C1327.24 786.892 1327 786.437 1326.75 785.776C1326.5 785.032 1326.33 784.495 1326.25 784.164C1326 783.668 1325.18 780.857 1323.77 775.732C1322.45 770.524 1320.96 765.523 1319.31 760.728H1281.86C1279.79 767.093 1278.18 772.508 1277.02 776.972C1275.87 781.436 1275.2 783.833 1275.04 784.164C1274.96 784.495 1274.79 785.032 1274.54 785.776C1274.3 786.437 1274.05 786.892 1273.8 787.14C1273.55 787.388 1273.22 787.677 1272.81 788.008C1272.15 788.669 1271.11 789 1269.71 789H1266.73C1264.09 789 1262.76 787.884 1262.76 785.652C1262.76 785.073 1262.93 784.123 1263.26 782.8C1271.86 753.949 1281.24 730.307 1291.41 711.872C1291.57 711.624 1291.86 711.087 1292.28 710.26C1292.69 709.433 1292.94 708.937 1293.02 708.772C1293.18 708.607 1293.43 708.235 1293.76 707.656C1294.18 707.077 1294.47 706.747 1294.63 706.664C1294.88 706.499 1295.21 706.251 1295.62 705.92C1296.04 705.589 1296.41 705.383 1296.74 705.3C1297.9 705.052 1298.97 704.928 1299.96 704.928ZM1300.58 716.708C1295.21 726.215 1290 737.912 1284.96 751.8H1316.33C1313.36 743.616 1308.11 731.919 1300.58 716.708ZM1378.27 714.104V743.492H1395.63C1400.76 743.492 1404.89 742.211 1408.03 739.648C1411.26 737.085 1412.87 733.448 1412.87 728.736C1412.87 723.941 1411.34 720.304 1408.28 717.824C1405.3 715.344 1401.09 714.104 1395.63 714.104H1378.27ZM1396 704.804C1400.8 704.804 1405.14 705.507 1409.02 706.912C1412.91 708.235 1416.26 710.797 1419.07 714.6C1421.88 718.403 1423.28 723.404 1423.28 729.604C1423.28 735.721 1421.01 740.847 1416.46 744.98C1411.92 749.113 1406.38 751.428 1399.85 751.924C1402.74 757.38 1407.08 763.539 1412.87 770.4C1418.74 777.261 1424.32 782.511 1429.61 786.148C1427.96 788.793 1425.81 790.116 1423.16 790.116C1420.52 790.116 1417.91 789.248 1415.35 787.512C1412.87 785.776 1410.6 783.751 1408.53 781.436C1406.46 779.121 1404.11 776.021 1401.46 772.136C1398.65 768.003 1394.72 761.431 1389.68 752.42H1378.27V784.412C1378.27 787.471 1376.62 789 1373.31 789H1372.69C1369.47 789 1367.86 787.471 1367.86 784.412V709.64C1367.86 706.499 1369.47 704.928 1372.69 704.928L1395.14 704.804C1395.38 704.804 1395.67 704.804 1396 704.804ZM1495.18 703.812C1503.94 703.812 1511.13 705.548 1516.75 709.02C1522.46 712.492 1525.31 716.336 1525.31 720.552C1525.31 722.371 1524.61 723.859 1523.2 725.016C1521.88 726.091 1520.1 726.628 1517.87 726.628C1515.31 717.865 1507.74 713.484 1495.18 713.484C1486.91 713.484 1479.88 716.295 1474.1 721.916C1468.39 727.455 1465.54 735.721 1465.54 746.716C1465.54 757.628 1468.44 766.019 1474.22 771.888C1480.01 777.675 1486.99 780.568 1495.18 780.568C1507.91 780.568 1516.01 775.897 1519.48 766.556C1521.47 766.556 1523 767.135 1524.07 768.292C1525.23 769.367 1525.81 770.813 1525.81 772.632C1525.81 776.848 1522.91 780.816 1517.13 784.536C1511.34 788.173 1504.02 789.992 1495.18 789.992C1483.52 789.992 1473.77 786.231 1465.91 778.708C1458.06 771.185 1454.13 760.521 1454.13 746.716C1454.13 732.911 1458.06 722.329 1465.91 714.972C1473.77 707.532 1483.52 703.812 1495.18 703.812ZM1562.79 704.804H1563.9C1567.13 704.804 1568.74 706.416 1568.74 709.64V740.764H1616.11V709.64C1616.11 706.416 1617.72 704.804 1620.94 704.804H1622.06C1625.2 704.804 1626.77 706.416 1626.77 709.64V784.288C1626.77 787.429 1625.2 789 1622.06 789H1620.94C1617.72 789 1616.11 787.429 1616.11 784.288V750.064H1568.74V784.288C1568.74 787.429 1567.13 789 1563.9 789H1562.79C1559.56 789 1557.95 787.429 1557.95 784.288V709.64C1557.95 706.416 1559.56 704.804 1562.79 704.804ZM1684.53 706.416C1689.25 704.68 1694.16 703.812 1699.29 703.812C1704.41 703.812 1709.29 704.68 1713.92 706.416C1718.55 708.069 1722.81 710.549 1726.69 713.856C1730.66 717.163 1733.8 721.709 1736.12 727.496C1738.51 733.2 1739.71 739.731 1739.71 747.088C1739.71 754.363 1738.51 760.852 1736.12 766.556C1733.8 772.177 1730.66 776.641 1726.69 779.948C1722.81 783.255 1718.55 785.776 1713.92 787.512C1709.29 789.165 1704.41 789.992 1699.29 789.992C1694.16 789.992 1689.25 789.165 1684.53 787.512C1679.9 785.776 1675.61 783.255 1671.64 779.948C1667.75 776.641 1664.65 772.177 1662.34 766.556C1660.02 760.852 1658.87 754.363 1658.87 747.088C1658.87 739.731 1660.02 733.2 1662.34 727.496C1664.65 721.709 1667.75 717.163 1671.64 713.856C1675.61 710.549 1679.9 708.069 1684.53 706.416ZM1720.12 722.04C1714.33 716.253 1707.39 713.36 1699.29 713.36C1691.19 713.36 1684.2 716.253 1678.33 722.04C1672.55 727.827 1669.65 736.135 1669.65 746.964C1669.65 757.711 1672.55 765.977 1678.33 771.764C1684.2 777.551 1691.19 780.444 1699.29 780.444C1707.39 780.444 1714.33 777.551 1720.12 771.764C1725.99 765.977 1728.93 757.711 1728.93 746.964C1728.93 736.135 1725.99 727.827 1720.12 722.04ZM1791.99 706.416C1796.7 704.68 1801.62 703.812 1806.75 703.812C1811.87 703.812 1816.75 704.68 1821.38 706.416C1826.01 708.069 1830.27 710.549 1834.15 713.856C1838.12 717.163 1841.26 721.709 1843.58 727.496C1845.97 733.2 1847.17 739.731 1847.17 747.088C1847.17 754.363 1845.97 760.852 1843.58 766.556C1841.26 772.177 1838.12 776.641 1834.15 779.948C1830.27 783.255 1826.01 785.776 1821.38 787.512C1816.75 789.165 1811.87 789.992 1806.75 789.992C1801.62 789.992 1796.7 789.165 1791.99 787.512C1787.36 785.776 1783.06 783.255 1779.1 779.948C1775.21 776.641 1772.11 772.177 1769.8 766.556C1767.48 760.852 1766.32 754.363 1766.32 747.088C1766.32 739.731 1767.48 733.2 1769.8 727.496C1772.11 721.709 1775.21 717.163 1779.1 713.856C1783.06 710.549 1787.36 708.069 1791.99 706.416ZM1827.58 722.04C1821.79 716.253 1814.85 713.36 1806.75 713.36C1798.65 713.36 1791.66 716.253 1785.79 722.04C1780 727.827 1777.11 736.135 1777.11 746.964C1777.11 757.711 1780 765.977 1785.79 771.764C1791.66 777.551 1798.65 780.444 1806.75 780.444C1814.85 780.444 1821.79 777.551 1827.58 771.764C1833.45 765.977 1836.38 757.711 1836.38 746.964C1836.38 736.135 1833.45 727.827 1827.58 722.04ZM1883.95 704.804H1885.07C1888.29 704.804 1889.9 706.375 1889.9 709.516V779.7H1928.09C1931.24 779.7 1932.81 781.271 1932.81 784.412C1932.81 787.471 1931.24 789 1928.09 789H1883.95C1880.73 789 1879.11 787.429 1879.11 784.288V709.516C1879.11 706.375 1880.73 704.804 1883.95 704.804Z" fill="#FBFBFB"/>
</g>
<path d="M0 1495C828.066 813.808 2100.85 739.811 3024 1495H0Z" fill="white"/>
<defs>
<filter id="filter0_d_311_13" x="1094.88" y="703.812" width="841.927" height="90.3042" filterUnits="userSpaceOnUse" color-interpolation-filters="sRGB">
<feFlood flood-opacity="0" result="BackgroundImageFix"/>
<feColorMatrix in="SourceAlpha" type="matrix" values="0 0 0 0 0 0 0 0 0 0 0 0 0 0 0 0 0 0 127 0" result="hardAlpha"/>
<feOffset dx="2" dy="2"/>
<feGaussianBlur stdDeviation="1"/>
<feComposite in2="hardAlpha" operator="out"/>
<feColorMatrix type="matrix" values="0 0 0 0 0 0 0 0 0 0 0 0 0 0 0 0 0 0 0.25 0"/>
<feBlend mode="normal" in2="BackgroundImageFix" result="effect1_dropShadow_311_13"/>
<feBlend mode="normal" in="SourceGraphic" in2="effect1_dropShadow_311_13" result="shape"/>
</filter>
</defs>
</svg>
