<svg width="3024" height="1496" viewBox="0 0 3024 1496" fill="none" xmlns="http://www.w3.org/2000/svg">
<rect width="3024" height="1495.21" fill="#133E88"/>
<g filter="url(#filter0_d_312_19)">
<path d="M1366.17 756.636H1337.9V789H1323.02V704.68H1369.89V718.94H1337.9V742.376H1366.17V756.636ZM1400.5 789H1385.62V704.68H1400.5V789ZM1423.77 789V704.68H1437.41C1443.94 713.195 1450.14 722.205 1456.01 731.712C1461.88 741.136 1467.21 750.849 1472.01 760.852L1470.89 735.68V704.68H1485.15V789H1471.51C1466.22 778.584 1460.72 768.127 1455.02 757.628C1449.4 747.047 1443.4 737.085 1437.04 727.744L1438.03 756.76V789H1423.77ZM1553.3 789L1548.09 772.508H1519.2L1513.99 789H1499.24L1527.39 704.68H1540.53L1568.8 789H1553.3ZM1527.26 746.716L1523.42 758.868H1543.75L1539.91 746.716L1533.71 725.388L1527.26 746.716ZM1582.89 789V704.68H1610.66C1619.51 704.68 1626.12 706.912 1630.5 711.376C1634.97 715.84 1637.2 721.792 1637.2 729.232V735.804C1637.2 743.244 1634.97 749.237 1630.5 753.784C1626.12 758.248 1619.51 760.48 1610.66 760.48H1597.77V789H1582.89ZM1610.66 718.94H1597.77V746.22H1610.66C1614.3 746.22 1617.07 745.311 1618.97 743.492C1620.95 741.673 1621.95 739.111 1621.95 735.804V729.232C1621.95 726.008 1620.95 723.487 1618.97 721.668C1617.07 719.849 1614.3 718.94 1610.66 718.94ZM1654.09 789V704.68H1681.87C1690.71 704.68 1697.32 706.912 1701.71 711.376C1706.17 715.84 1708.4 721.792 1708.4 729.232V735.804C1708.4 743.244 1706.17 749.237 1701.71 753.784C1697.32 758.248 1690.71 760.48 1681.87 760.48H1668.97V789H1654.09ZM1681.87 718.94H1668.97V746.22H1681.87C1685.5 746.22 1688.27 745.311 1690.17 743.492C1692.16 741.673 1693.15 739.111 1693.15 735.804V729.232C1693.15 726.008 1692.16 723.487 1690.17 721.668C1688.27 719.849 1685.5 718.94 1681.87 718.94Z" fill="#FBFBFB"/>
</g>
<path d="M0 1496C828.066 814.808 2100.85 740.811 3024 1496H0Z" fill="white"/>
<defs>
<filter id="filter0_d_312_19" x="1323.02" y="704.68" width="389.382" height="88.3198" filterUnits="userSpaceOnUse" color-interpolation-filters="sRGB">
<feFlood flood-opacity="0" result="BackgroundImageFix"/>
<feColorMatrix in="SourceAlpha" type="matrix" values="0 0 0 0 0 0 0 0 0 0 0 0 0 0 0 0 0 0 127 0" result="hardAlpha"/>
<feOffset dx="2" dy="2"/>
<feGaussianBlur stdDeviation="1"/>
<feComposite in2="hardAlpha" operator="out"/>
<feColorMatrix type="matrix" values="0 0 0 0 0 0 0 0 0 0 0 0 0 0 0 0 0 0 0.25 0"/>
<feBlend mode="normal" in2="BackgroundImageFix" result="effect1_dropShadow_312_19"/>
<feBlend mode="normal" in="SourceGraphic" in2="effect1_dropShadow_312_19" result="shape"/>
</filter>
</defs>
</svg>
